# xmcd
#
# Track frame offsets: 
#        150
#        15000
#        26730
#        33066
#        40311
#        47174
#        53209
#        59432
#        73017
#        86350
#        98777
#        111614
#
# Disc length: 1537 seconds
#
# Revision: 0
# Processed by: cddbd v1.5.1PL0 Copyright (c) Steve Scherf et al.
# Submitted via: ExactAudioCopy v0.95a5
#
DISCID=9705ff0c
DTITLE=Leadbelly - Legendary Blues Recordings
DYEAR=1900
DGENRE=Blues
TTITLE0=The Bourgeois Blues
TTITLE1=Rock Island Line
TTITLE2=Goodnight,  Irene
TTITLE3=Poor Howard
TTITLE4=Green Corn
TTITLE5=Big Fat Woman
TTITLE6=Whoa Back Buck
TTITLE7=The Midnight Special
TTITLE8=I'm On My Last Go Round
TTITLE9=New York City
TTITLE10=Good Morning Blues
TTITLE11=Bring Me Lil Water Silvy
EXTD=
EXTT0=
EXTT1=
EXTT2=
EXTT3=
EXTT4=
EXTT5=
EXTT6=
EXTT7=
EXTT8=
EXTT9=
EXTT10=
EXTT11=
PLAYORDER=
